<?xml version="1.0" standalone="no"?>
<!DOCTYPE svg PUBLIC "-//W3C//DTD SVG 20010904//EN"
 "http://www.w3.org/TR/2001/REC-SVG-20010904/DTD/svg10.dtd">
<svg version="1.0" xmlns="http://www.w3.org/2000/svg"
 width="144.000000pt" height="144.000000pt" viewBox="0 0 144.000000 144.000000"
 preserveAspectRatio="xMidYMid meet">
<metadata>
Created by potrace 1.11, written by Peter Selinger 2001-2013
</metadata>
<g transform="translate(0.000000,144.000000) scale(0.100000,-0.100000)"
fill="#000000" stroke="none">
<path d="M875 1325 c-5 -3 -70 -9 -143 -14 -75 -5 -139 -14 -145 -20 -8 -8
-11 -58 -8 -160 2 -99 -1 -151 -8 -155 -6 -4 -37 -12 -68 -18 -32 -5 -78 -14
-103 -18 -89 -16 -214 -58 -275 -93 l-40 -23 -3 -170 c-2 -160 -1 -172 18
-197 12 -15 26 -27 32 -27 6 0 19 -6 27 -14 37 -33 204 -105 306 -131 61 -15
115 -33 122 -39 6 -6 13 -36 15 -66 l3 -55 -100 -8 c-142 -11 -198 -24 -244
-58 -85 -61 -103 -59 569 -59 l610 0 0 520 0 520 -100 0 c-94 0 -551 -35 -577
-45 -6 -2 -16 2 -22 9 -15 17 -12 203 3 215 23 19 94 32 195 37 57 2 108 7
112 10 14 9 10 41 -6 47 -20 8 -158 18 -170 12z"/>
</g>
</svg>
