<?xml version="1.0" encoding="utf-8"?>
<!-- Generator: Adobe Illustrator 20.1.0, SVG Export Plug-In . SVG Version: 6.00 Build 0)  -->
<svg version="1.1" xmlns="http://www.w3.org/2000/svg" xmlns:xlink="http://www.w3.org/1999/xlink" x="0px" y="0px"
	 viewBox="0 0 58.7 13" style="enable-background:new 0 0 58.7 13;" xml:space="preserve">
<style type="text/css">
	.st0{fill:#327430;}
	.st1{fill:#FFFFFF;}
</style>
<g id="green_background">
	<g id="XMLID_1_">
		<g>
			<path class="st0" d="M48.7,8.2c0.2,0,3.4,0,5.1-0.1c0.1,0,1.4-0.1,1.8-0.1c0.4,0,0.7,0,1.1,0c-0.3,0.5-0.7,0.7-1.1,0.9
				c-0.1,0-1.5,0.4-1.6,0.4c-2,0.1-4.8,0.4-6.8,0.5c-0.1,0-0.2,0-0.3,0c-2.3-0.2-4.5,0.4-6.8,0.4c-0.5,0-0.9,0-1.4-0.1
				c-0.2,0-0.4,0-0.6,0c-0.8-0.1-1.5,0-2.3-0.1c-3.2,0.2-7.1,0.6-10.3,1.2c3.6-0.1,7.2-0.6,10.9-0.6c-0.6,0.1-1.3,0.2-1.9,0.2
				c-2,0.2-3.9,0.4-5.9,0.6c-1.3,0.1-2.6,0.2-4,0.3c-2.2,0.2-4.4,0.4-6.6,0.5c-1.5,0.1-3,0.2-4.5,0.3c-1.7,0.1-3.4,0.2-5.2,0.3
				c-0.1,0-0.1,0-0.2,0.1c-0.2,0-0.3,0-0.5,0c0-0.1-0.1-0.1-0.2-0.1c-1.8-0.4-3.7-0.5-5.6-0.4c-0.2,0-0.5,0.2-0.5-0.2
				c0-0.4-0.1-0.9-0.2-1.3c0-0.7,0.3-1,0.9-1.1c0.4,0,0.7-0.1,1.1-0.1C3.6,9.6,4,9.8,4,9.2c0-0.5-0.3-0.5-0.6-0.6
				C2.3,8.4,1.3,8,0.4,7.2C0.1,7.1-0.4,5.7,0.6,4.9c0.6-0.4,1.3-0.7,1.9-0.8C2.9,4,7,3.3,12,2.9c3.8-0.3,8-0.5,11.3-0.8
				c3.3-0.3,12-0.3,12.1-0.4c2.5-0.1,5.1-0.3,7.6-0.4c1.4-0.1,2.8-0.1,4.2,0c2,0.1,3.8-0.4,5.7-0.6c0.8-0.1,1.6-0.4,2.4-0.1
				c0.3,0.1,0.5,0.2,0.7,0.5c0.1,0.4,0.2,0.6-0.4,0.7c-2.1,0.2-4.3,0.5-6.4,0.7c-0.6,0.1-1.2,0.1-1.8,0.2c0.6,0.1,1.2,0.2,1.8,0
				c2.1-0.1,4.2-0.2,6.3-0.5C56,2.2,56,2.3,56,2.6c-0.1,0.8,0.1,0.9,0.8,0.8c0.3-0.1,0.5-0.1,0.8-0.2c0.6-0.1,1.1,0.4,1.1,1
				c0,0.6,0,1.1,0,1.7c0,1-0.5,1.5-1.5,1.5c-0.5,0-1,0-1.5,0c-2.1,0.1-5.9,0.5-9.8,0.7c-0.3-0.1-1.1,0.2-1.1,0.2
				c0,0,0.1,0.1,0.1,0.1c1,0,2-0.1,3-0.1C48.3,8.2,48.3,8.3,48.7,8.2z"/>
		</g>
		<g>
		</g>
	</g>
</g>
<g id="font">
	<g id="food_delivery">
		<g id="y">
			<g>
				<path class="st1" d="M58.3,5.5c-0.1-0.3-0.4-0.2-0.7-0.2c-0.2,0-0.3,0.1-0.5,0.2c-0.5,0.2-0.8,0.6-1.4,0.7
					C55.9,5.6,56,5,56.1,4.4c0.1-0.3,0-0.5-0.3-0.7c-0.3-0.2-0.6-0.2-0.8,0.1c-0.2,0.2-0.3,0.3-0.5,0.5c-0.4,0.4-0.8,0.8-1.2,1.1
					c-0.2-0.5,0.1-0.9,0.1-1.3c0-0.3-0.1-0.5-0.5-0.6c-0.2-0.1-0.4,0-0.5,0.3c-0.2,0.8-0.4,1.6-0.1,2.5c0.1,0.4,0.4,0.6,0.7,0.7
					c0.4,0.1,0.5-0.3,0.6-0.5c0.2-0.5,0.6-0.8,1-1.2c0.1-0.2,0.5-0.2,0.4,0.1c-0.1,0.8,0,1.7-0.7,2.4c0,0.4-0.4,0.5-0.6,0.7
					c-0.2,0.4-0.5,0.9-0.7,1.3c-0.1,0.4-0.3,0.8-0.4,1.2c-0.2,0.5-0.2,1,0,1.5c0.2,0.4,0.6,0.5,1,0.4c0.5-0.1,0.7-0.5,0.9-0.9
					c0.3-0.9,0.5-1.7,0.7-2.6c0.1-0.3-0.2-0.7,0-1c0.1-0.3,0.2-0.5,0.5-0.7c0.6-0.7,1.4-1.1,2.2-1.5C58.1,5.8,58.5,5.8,58.3,5.5z
					 M54.5,9.4c0,0.8,0,1.7-0.7,2.3c-0.2,0.2-0.3,0.4-0.6,0.2c-0.2-0.1-0.2-0.4-0.1-0.6c0.2-0.7,0.2-1.4,0.8-1.9
					c0.1-0.3,0.3-0.6,0.6-0.8C54.7,8.9,54.7,9.1,54.5,9.4z"/>
			</g>
		</g>
		<g id="eliver__x3C_Group_x3E_">
			<g>
				<g>
					<path class="st1" d="M51.5,3.2c-0.4-0.3-0.7-0.1-1.1,0.2c-0.2,0.2-0.2,0.5-0.6,0.6c-0.1-0.3-0.2-0.5-0.5-0.5
						c-0.4,0-0.5,0.3-0.6,0.6c-0.2,0.5-0.3,1.2-0.7,1.6c-0.6,0.7-1.4,1.2-2.1,1.8c-0.2,0.1-0.4,0.4-0.6,0.2
						c-0.4-0.3-0.2-0.8-0.2-1.3C45.1,6,45.3,6,45.5,6c0.9,0,1.3-0.6,1.7-1.2c0.2-0.4,0.1-0.9-0.3-1.2c-0.7-0.4-1-0.4-1.6,0.2
						c-0.3,0.3-0.5,0.8-1,0.8c-0.7,0-1.4,0.2-2.1,0.3c-0.4,0.1-0.8,0.2-0.8,0.8c0,0.5-0.4,0.9-0.7,1.3c-0.2-0.8,0.1-1.6,0.1-2.3
						c0-0.2,0-0.4,0-0.6c0-0.4-0.2-0.5-0.5-0.5c-0.3,0-0.3,0.3-0.3,0.5c0.1,1.3-0.4,2.4-1.4,3.5C38.5,7,38.3,6.5,38.4,6
						c0.1-0.6,0.2-1.2-0.1-1.8c-0.2-0.5-0.8-0.6-0.9-0.2c-0.2,0.4-0.5,0.8-0.5,1.3c-0.5,1.1-0.9,2.2-1.4,3.3
						c-0.1-0.2-0.3-0.3-0.3-0.5c0.1-2.1,0.2-4.3,0.2-6.4c-0.1-0.3,0.3-0.9-0.4-0.9c-0.6,0-0.2,0.6-0.4,0.9c0,1.2-0.4,2.4-0.1,3.6
						c0,0.1-0.1,0.2-0.1,0.2c-0.3-0.1-0.4,0.2-0.6,0.3c-0.6,0.5-1.2,1-1.8,1.5c-0.4,0.3-0.7,0.4-0.7-0.2c0-0.2-0.1-0.5-0.1-0.7
						c0-0.3,0.1-0.5,0.5-0.5c0.8,0.1,1.2-0.5,1.6-1c0.3-0.4,0.4-0.8,0-1.2c-0.4-0.4-1.1-0.5-1.5-0.2c-1.2,0.9-1.7,2-1.5,3.5
						c0.1,0.6,0.3,1,0.8,1.2c0.5,0.2,0.9,0,1.3-0.4c0.6-0.6,1.2-1.3,1.8-1.9c0.1,0.1,0.1,0.3,0.1,0.4c-0.1,1.3,0,2.5,0.6,3.6
						c0.3,0.4,0.6,0.2,0.8,0c0.9-1.2,0.8-2.7,1.1-4.1c0.1,0.2,0.1,0.3,0.2,0.5c-0.1,0.5,0.1,0.9,0.4,1.2c0.5,0.8,1.3,0.8,1.7,0
						c0.2-0.3,0.3-0.6,0.6-0.8c0,0.5,0,0.9,0.2,1.2c0.1,0.2,0.2,0.4,0.5,0.5c0.3,0,0.5-0.2,0.6-0.4c0.2-0.5,0.5-1.1,0.7-1.6
						c0.4-0.8,1.6-1.4,2.6-1.3c-0.5,1.4-0.3,2.4,0.6,3.1c0.3,0.1,0.7,0,1-0.1c0.6-0.7,1.3-1.3,2.1-2c0,0.6-0.1,1.3-0.1,1.9
						c0,0.1,0,0.2,0,0.3c0.3,0.6,0.5,0.3,0.8,0c-0.1-0.2,0-0.3,0.1-0.4c0.4-1.2,0.7-2.5,1.5-3.6C50.4,4.2,50.4,4,50.6,4
						c0.3,0,0.2,0.3,0.2,0.5c0,0.2,0.1,0.4,0.3,0.4c0.2,0,0.2-0.2,0.3-0.3c0.1-0.1,0.2-0.2,0.3-0.3C51.9,3.9,51.9,3.5,51.5,3.2z
						 M45.3,5c0.2-0.4,0.4-0.8,1-0.9c0.2,0,0.2,0.2,0.2,0.4c0,0.4-0.7,1-1.1,0.9c0,0-0.1,0-0.1,0C45.2,5.3,45.2,5.2,45.3,5z
						 M32.4,4.1c0.2,0,0.3,0.1,0.3,0.4c0,0.4-0.6,0.9-1,0.9c-0.2,0-0.2-0.1-0.2-0.3C31.5,4.7,32.1,4.1,32.4,4.1z"/>
				</g>
			</g>
			<g>
				<g>
					<path class="st1" d="M38.1,2.1c-0.3,0-0.4,0.1-0.4,0.3c0,0.2,0,0.4,0.3,0.4c0.3,0,0.3-0.2,0.4-0.4C38.5,2.2,38.3,2.1,38.1,2.1z
						"/>
				</g>
			</g>
		</g>
		<g id="D">
			<g>
				<path class="st1" d="M29.2,1.8C28.3,1,28.1,1,27.3,1.7c-0.1,0.1-0.2,0.2-0.3,0.3c-0.1,0.3-0.5,0.6-0.4,1h0
					c-0.2,0.2,0,0.6-0.3,0.8c0,0,0-0.1,0-0.1c0,0-0.1,0-0.1,0c0,0.7-0.6,1.2-0.6,2c-0.3-0.8,0-1.4,0.1-2C25.8,3,25.7,2.5,25.4,2
					c-0.3-0.1-0.6-0.2-0.8,0c0.1,1,0,2.1-0.1,3.1c-0.1,1-0.2,2-0.1,3.1c0,0.3,0,0.7,0.4,0.8c0.3,0.1,0.6-0.1,0.8-0.4
					c0.1-0.2,0.2-0.4,0.5-0.2c0.7,0.3,1.2,0,1.6-0.5c0.2-0.2,0.6-0.5,0.4-0.8c-0.3-0.2-0.4,0.3-0.7,0.4c0,0,0,0,0,0.1
					c-0.3,0.3-0.7,0.3-1,0.1c-0.3-0.2-0.6-0.4-0.4-0.9C26.1,6,26.2,5,26.4,4.1c0-0.1-0.1-0.1-0.1-0.2c0,0,0.1,0,0.1,0
					c0.4-0.2,0.4-0.7,0.5-1c0.1-0.4,0.4-0.7,0.7-0.9c0.3-0.3,0.6-0.3,0.8,0.1c0.1,0.2,0.2,0.5,0.3,0.8c0.2,0.9,0,1.7-0.3,2.6
					c0,0,0,0.1,0,0.1c0,0.1,0,0.2,0,0.3c0,0.2-0.2,0.4-0.1,0.5c0.3,0.1,0.4-0.2,0.5-0.4C29.7,4.7,29.8,3.3,29.2,1.8z"/>
			</g>
		</g>
		<g id="ood">
			<g>
				<path class="st1" d="M21.1,0.1c-0.4-0.1-0.6,0.1-0.8,0.5c-0.3,0.7-0.6,1.3-0.9,2c-0.2,0.7-0.4,1.2-1.3,1.1c-0.1,0-0.3,0-0.4,0.1
					c-0.5,0.9-1.4,0.6-2.1,1c-0.3,0.1-0.5,0.1-0.6-0.2c-0.2-0.6-0.7-0.9-1.3-1.1c-0.3,0-0.5,0-0.7,0c-0.5-0.1-0.8,0.1-0.9,0.6
					c-0.1,0.6-0.6,0.6-1,0.7c-0.4,0.1-0.5-0.3-0.6-0.5c-0.3-0.5-0.7-0.7-1.2-0.8c-0.2-0.1-0.9-0.1-1-0.1c-0.1,0-0.2,0-0.2,0.1
					C7.6,3.9,7.5,4.5,7.8,5c0.1,0.3,0.1,0.6,0,0.9C7.6,6.8,7.5,7.6,8.2,8.2C8.6,8.6,9,8.7,9.4,8.4C10,8,10.3,7.5,10.5,6.9
					c0.1-0.4,0.2-0.8,0.3-1.1C10.9,5.4,11.7,4.9,12,5c0.4,0.2,0.2,0.6,0.1,0.9C12.1,6.2,12,6.4,12,6.6c-0.1,0.7,0.3,1.6,0.9,1.8
					c0.7,0.3,1.1-0.3,1.5-0.7c0.4-0.4,0.5-1,0.7-1.5C15.3,5.3,15.7,5,16.8,5c-0.1,0.2-0.3,0.5-0.4,0.7c-0.1,0.3-0.3,0.6-0.3,0.8
					c-0.2,0.6,0.2,1.3,0.7,1.5c0.6,0.2,0.9-0.3,1.1-0.7c0.2-0.4,0.4-0.8,0.5-1.2c0.3-1.1,1-1.9,1.4-3.1c0.2,0.8-0.1,1.4-0.1,2.1
					c-0.3,0.4-0.1,0.9-0.2,1.3c-0.3,0.9-0.6,1.9-0.5,2.8c0,0.3,0,0.6,0.4,0.6c0.3,0,0.3-0.3,0.3-0.5c0-1.3,0.5-2.5,0.3-3.8
					c0.1,0,0.2-0.1,0.2-0.1c0.2-1,0.4-1.9,0.6-2.9C21,2,21.1,1.5,21.2,1C21.4,0.6,21.5,0.3,21.1,0.1z M8.6,3.9
					c0.1-0.1,0.6-0.1,0.7,0c0.3,0.2,0.6,0.5,0.8,0.9c0.2,0.3,0.1,0.5-0.2,0.6C9.6,5.5,9.3,5.6,9.4,5.1c0-0.2-0.3-0.4-0.5-0.4
					C8,4.7,8.3,4.3,8.6,3.9z M10.2,6.2c-0.2,0.5-0.4,1-0.8,1.4C9.2,7.8,9,7.8,8.8,7.5C8.6,7,8.9,6.1,9.5,6c0.2,0,0.3-0.1,0.4-0.1
					C10.2,5.8,10.3,6,10.2,6.2z M12.9,3.9c0.2-0.1,0.7,0,0.7,0c0.3,0.2,0.6,0.5,0.8,0.9c0.2,0.3,0.1,0.5-0.2,0.6
					c-0.2,0.1-0.5,0.2-0.5-0.3c0-0.2-0.3-0.4-0.5-0.4C12.3,4.7,12.6,4.3,12.9,3.9z M14.6,6.3c-0.2,0.4-0.4,0.8-0.6,1.2
					c-0.1,0.2-0.3,0.3-0.5,0.2c-0.3-0.1-0.3-0.3-0.3-0.5c0.1-1.1,0.3-1.3,1.1-1.3C14.6,5.8,14.7,6,14.6,6.3z M17,7.1
					c-0.3-1.1,0.4-2.4,1.6-2.8C17.9,5.2,17.5,6.2,17,7.1z"/>
			</g>
		</g>
		<g id="F">
			<g>
				<path class="st1" d="M6.7,1.5C5.9,1.4,5,1.6,4.2,1.6c-0.3,0-0.3,0.2-0.3,0.5c0,0.6,0.1,1.2,0,1.8c0,0.3,0.1,0.6,0.1,1
					C3.8,5.9,3.8,7.1,3.9,8.2C4,8.6,4.3,8.7,4.6,8.6C5,8.6,5.2,8.3,5.1,8C5,7.3,5.2,6.6,4.9,6c-0.3-0.5,0.2-0.8,1-0.9
					c0.3,0,0.7,0.1,0.7-0.3c0-0.4-0.4-0.4-0.7-0.4c-0.1,0-0.1,0-0.2,0C5,4.6,4.7,4.3,4.8,3.6c0-1.8,0-1.6,1.6-1.7c0.1,0,0.1,0,0.2,0
					c0.2,0,0.4,0,0.4-0.2C7.1,1.5,6.9,1.5,6.7,1.5z"/>
			</g>
		</g>
	</g>
</g>
</svg>
